<svg width="237" height="404" viewBox="0 0 237 404" fill="none" xmlns="http://www.w3.org/2000/svg">
<path d="M-156.65 199.438C-162.173 199.374 -166.728 203.801 -166.518 209.32C-165.137 245.65 -153.939 280.998 -134.027 311.566C-112.292 344.931 -81.1509 371.102 -44.5421 386.769C-7.93336 402.436 32.4991 406.895 71.6423 399.583C110.785 392.271 146.881 373.516 175.365 345.689C203.849 317.863 223.442 282.215 231.666 243.253C239.89 204.291 236.376 163.766 221.568 126.801C206.76 89.8364 181.323 58.0931 148.474 35.5851C118.38 14.9646 83.3033 2.94401 47.015 0.715447C41.5026 0.3769 36.9699 4.82734 36.9054 10.3498L35.5737 124.412C35.5092 129.935 39.959 134.388 45.411 135.27C55.1577 136.846 64.4803 140.556 72.6924 146.183C83.667 153.703 92.1653 164.308 97.1126 176.658C102.06 189.008 103.234 202.547 100.486 215.564C97.7388 228.581 91.1929 240.491 81.6766 249.787C72.1603 259.084 60.1009 265.35 47.0234 267.793C33.9458 270.236 20.4376 268.746 8.20684 263.512C-4.02392 258.277 -14.4279 249.534 -21.6894 238.387C-27.123 230.045 -30.6145 220.639 -31.9629 210.858C-32.7172 205.387 -37.0654 200.834 -42.5878 200.77L-156.65 199.438Z" fill="#203E59"/>
</svg>
